<svg width="159" height="159" viewBox="0 0 159 159" fill="none" xmlns="http://www.w3.org/2000/svg">
<path d="M57.6286 24.7257C58.8256 21.9926 62.1345 20.9095 64.7159 22.4058L67.3493 23.9321C69.4044 25.1233 72.014 24.7042 73.5927 22.9293L75.6156 20.655C77.5986 18.4256 81.0802 18.418 83.073 20.6387L85.1058 22.9041C86.6922 24.6721 89.3036 25.0798 91.3534 23.8797L93.9801 22.3418C96.555 20.8342 99.8686 21.9029 101.078 24.6307L102.311 27.4135C103.273 29.5851 105.631 30.7799 107.951 30.2719L110.925 29.621C113.839 28.9829 116.661 31.0232 116.967 33.9911L117.28 37.0187C117.525 39.3815 119.398 41.2463 121.761 41.4803L124.79 41.78C127.76 42.0739 129.812 44.8861 129.187 47.8036L128.549 50.7798C128.051 53.1024 129.256 55.4547 131.432 56.4076L134.22 57.6287C136.953 58.8257 138.036 62.1346 136.54 64.7161L135.014 67.3495C133.823 69.4046 134.242 72.0141 136.017 73.5928L138.291 75.6157C140.52 77.5987 140.528 81.0804 138.307 83.0731L136.042 85.1059C134.274 86.6924 133.866 89.3037 135.066 91.3536L136.604 93.9803C138.112 96.5552 137.043 99.8688 134.315 101.078L131.532 102.311C129.361 103.273 128.166 105.631 128.674 107.951L129.325 110.925C129.963 113.839 127.923 116.661 124.955 116.968L121.927 117.281C119.564 117.525 117.7 119.398 117.466 121.762L117.166 124.791C116.872 127.76 114.06 129.812 111.142 129.187L108.166 128.549C105.844 128.051 103.491 129.256 102.538 131.432L101.317 134.22C100.12 136.953 96.8113 138.037 94.2298 136.54L91.5965 135.014C89.5413 133.823 86.9318 134.242 85.3531 136.017L83.3302 138.291C81.3472 140.521 77.8656 140.528 75.8728 138.307L73.84 136.042C72.2536 134.274 69.6422 133.866 67.5923 135.066L64.9657 136.604C62.3908 138.112 59.0772 137.043 57.8682 134.315L56.6349 131.533C55.6725 129.361 53.3149 128.166 50.9945 128.674L48.0212 129.325C45.1064 129.963 42.2853 127.923 41.9784 124.955L41.6654 121.927C41.4211 119.565 39.5482 117.7 37.1843 117.466L34.1554 117.166C31.1861 116.872 29.1335 114.06 29.7588 111.143L30.3967 108.166C30.8946 105.844 29.6895 103.491 27.5137 102.538L24.7256 101.317C21.9925 100.12 20.9094 96.8114 22.4056 94.23L23.932 91.5966C25.1232 89.5415 24.704 86.932 22.9291 85.3533L20.6548 83.3304C18.4254 81.3474 18.4178 77.8657 20.6385 75.873L22.904 73.8402C24.6719 72.2537 25.0797 69.6424 23.8795 67.5925L22.3416 64.9658C20.8341 62.3909 21.9027 59.0773 24.6306 57.8684L27.4133 56.6351C29.585 55.6726 30.7797 53.3151 30.2717 50.9947L29.6208 48.0213C28.9827 45.1066 31.023 42.2854 33.991 41.9786L37.0186 41.6656C39.3814 41.4213 41.2462 39.5483 41.4801 37.1845L41.7799 34.1555C42.0737 31.1863 44.886 29.1337 47.8034 29.759L50.7796 30.3969C53.1022 30.8947 55.4545 29.6897 56.4075 27.5138L57.6286 24.7257Z" fill="#D2E26F"/>
<path d="M47.7317 60.5371C47.7317 59.7931 48.0077 59.1691 48.5597 58.6651C49.1117 58.1371 49.8677 57.7411 50.8277 57.4771C51.7877 57.2131 52.9037 57.0811 54.1757 57.0811C55.9757 57.0811 57.4877 57.3691 58.7117 57.9451C59.9597 58.4971 60.8957 59.2771 61.5197 60.2851C62.1677 61.2691 62.4917 62.3971 62.4917 63.6691C62.4917 64.9411 62.1317 66.1891 61.4117 67.4131C60.6917 68.6131 59.5757 69.8491 58.0637 71.1211L53.0597 75.2971L62.2037 75.2971C62.3237 75.4891 62.4437 75.7771 62.5637 76.1611C62.6837 76.5211 62.7437 76.9171 62.7437 77.3491C62.7437 78.0931 62.5757 78.6331 62.2397 78.9691C61.9037 79.3051 61.4597 79.4731 60.9077 79.4731L48.3437 79.4731C47.8877 79.1611 47.5277 78.7531 47.2637 78.2491C47.0237 77.7451 46.9037 77.1811 46.9037 76.5571C46.9037 75.8371 47.0477 75.2371 47.3357 74.7571C47.6477 74.2531 47.9837 73.8331 48.3437 73.4971L53.6717 68.7811C54.9677 67.6531 55.8557 66.7291 56.3357 66.0091C56.8157 65.2891 57.0557 64.6051 57.0557 63.9571C57.0557 63.1651 56.7557 62.5411 56.1557 62.0851C55.5797 61.6051 54.7397 61.3651 53.6357 61.3651C52.6517 61.3651 51.7637 61.5331 50.9717 61.8691C50.2037 62.1811 49.5677 62.5051 49.0637 62.8411C48.7037 62.6011 48.3917 62.2891 48.1277 61.9051C47.8637 61.5211 47.7317 61.0651 47.7317 60.5371ZM79.0013 68.5291C79.0013 66.9451 78.8333 65.6251 78.4973 64.5691C78.1613 63.4891 77.6933 62.6851 77.0933 62.1571C76.4933 61.6291 75.7853 61.3651 74.9693 61.3651C74.1773 61.3651 73.4813 61.6411 72.8813 62.1931C72.2813 62.7211 71.8133 63.5131 71.4773 64.5691C71.1653 65.6251 71.0093 66.9451 71.0093 68.5291C71.0093 70.9291 71.3573 72.7291 72.0533 73.9291C72.7493 75.1291 73.7213 75.7291 74.9693 75.7291C76.2653 75.7291 77.2613 75.1291 77.9573 73.9291C78.6533 72.7291 79.0013 70.9291 79.0013 68.5291ZM75.0053 80.0131C73.1573 80.0131 71.5253 79.5931 70.1093 78.7531C68.7173 77.8891 67.6253 76.6051 66.8333 74.9011C66.0413 73.1971 65.6453 71.0731 65.6453 68.5291C65.6453 65.9851 66.0533 63.8731 66.8693 62.1931C67.6853 60.4891 68.7893 59.2171 70.1813 58.3771C71.5973 57.5131 73.2053 57.0811 75.0053 57.0811C76.7813 57.0811 78.3773 57.5131 79.7933 58.3771C81.2093 59.2171 82.3253 60.4891 83.1413 62.1931C83.9813 63.8971 84.4013 66.0091 84.4013 68.5291C84.4013 71.0731 83.9933 73.1971 83.1773 74.9011C82.3853 76.6051 81.2813 77.8891 79.8653 78.7531C78.4493 79.5931 76.8293 80.0131 75.0053 80.0131ZM98.2833 62.8411C98.2833 64.5691 97.7553 65.9371 96.6993 66.9451C95.6433 67.9291 94.2993 68.4211 92.6673 68.4211C91.0353 68.4211 89.6913 67.9291 88.6353 66.9451C87.5793 65.9371 87.0513 64.5691 87.0513 62.8411C87.0513 61.1131 87.5793 59.7571 88.6353 58.7731C89.6913 57.7891 91.0353 57.2971 92.6673 57.2971C94.2993 57.2971 95.6433 57.7891 96.6993 58.7731C97.7553 59.7571 98.2833 61.1131 98.2833 62.8411ZM90.9753 62.8411C90.9753 63.6091 91.1313 64.1971 91.4433 64.6051C91.7793 64.9891 92.1873 65.1811 92.6673 65.1811C93.1473 65.1811 93.5433 64.9891 93.8553 64.6051C94.1913 64.1971 94.3593 63.6091 94.3593 62.8411C94.3593 62.0971 94.1913 61.5331 93.8553 61.1491C93.5433 60.7651 93.1473 60.5731 92.6673 60.5731C92.1873 60.5731 91.7793 60.7651 91.4433 61.1491C91.1313 61.5331 90.9753 62.0971 90.9753 62.8411ZM92.7753 75.7651L105.411 57.2611C106.155 57.3811 106.815 57.5851 107.391 57.8731C107.991 58.1611 108.291 58.5571 108.291 59.0611C108.291 59.4211 108.195 59.7811 108.003 60.1411C107.835 60.5011 107.619 60.8731 107.355 61.2571L94.7193 79.7251C93.8793 79.6531 93.1833 79.4611 92.6313 79.1491C92.1033 78.8131 91.8393 78.4051 91.8393 77.9251C91.8393 77.5891 91.9233 77.2411 92.0913 76.8811C92.2593 76.5211 92.4873 76.1491 92.7753 75.7651ZM113.079 74.1811C113.079 75.9091 112.551 77.2771 111.495 78.2851C110.439 79.2691 109.095 79.7611 107.463 79.7611C105.831 79.7611 104.475 79.2691 103.395 78.2851C102.339 77.2771 101.811 75.9091 101.811 74.1811C101.811 72.4531 102.339 71.0971 103.395 70.1131C104.475 69.1291 105.831 68.6371 107.463 68.6371C109.095 68.6371 110.439 69.1291 111.495 70.1131C112.551 71.0971 113.079 72.4531 113.079 74.1811ZM105.735 74.1811C105.735 74.9491 105.891 75.5371 106.203 75.9451C106.539 76.3291 106.959 76.5211 107.463 76.5211C107.943 76.5211 108.339 76.3291 108.651 75.9451C108.987 75.5371 109.155 74.9491 109.155 74.1811C109.155 73.4371 108.987 72.8731 108.651 72.4891C108.339 72.1051 107.943 71.9131 107.463 71.9131C106.959 71.9131 106.539 72.1051 106.203 72.4891C105.891 72.8731 105.735 73.4371 105.735 74.1811ZM77.8702 97.3931C77.8702 98.7798 77.5968 99.9531 77.0502 100.913C76.5168 101.86 75.7768 102.58 74.8302 103.073C73.8968 103.566 72.8368 103.813 71.6502 103.813C70.4635 103.813 69.4035 103.566 68.4702 103.073C67.5368 102.58 66.8035 101.86 66.2702 100.913C65.7368 99.9531 65.4702 98.7798 65.4702 97.3931C65.4702 96.0065 65.7435 94.8398 66.2902 93.8931C66.8368 92.9331 67.5768 92.2131 68.5102 91.7331C69.4435 91.2398 70.4902 90.9931 71.6502 90.9931C72.8235 90.9931 73.8768 91.2398 74.8102 91.7331C75.7568 92.2131 76.5035 92.9331 77.0502 93.8931C77.5968 94.8398 77.8702 96.0065 77.8702 97.3931ZM74.7302 97.3931C74.7302 96.1131 74.4502 95.1398 73.8902 94.4731C73.3435 93.8065 72.5968 93.4731 71.6502 93.4731C70.7435 93.4731 70.0102 93.8065 69.4502 94.4731C68.8902 95.1265 68.6102 96.0998 68.6102 97.3931C68.6102 98.6998 68.8835 99.6865 69.4302 100.353C69.9902 101.006 70.7368 101.333 71.6702 101.333C72.6035 101.333 73.3435 101.006 73.8902 100.353C74.4502 99.6865 74.7302 98.6998 74.7302 97.3931ZM82.2341 96.8531L82.2341 94.5731L86.1341 94.5731C86.2007 94.6798 86.2674 94.8331 86.3341 95.0331C86.4007 95.2331 86.4341 95.4531 86.4341 95.6931C86.4341 96.1065 86.3407 96.4065 86.1541 96.5931C85.9807 96.7665 85.7341 96.8531 85.4141 96.8531L82.2341 96.8531ZM82.6941 93.7731L82.6941 96.4931L79.8741 96.4931L79.8741 93.6731C79.8741 92.7931 80.0541 92.0798 80.4141 91.5331C80.7874 90.9865 81.2941 90.5865 81.9341 90.3331C82.5874 90.0665 83.3074 89.9331 84.0941 89.9331C85.0274 89.9331 85.7207 90.0598 86.1741 90.3131C86.6407 90.5531 86.8741 90.9465 86.8741 91.4931C86.8741 91.7331 86.8207 91.9465 86.7141 92.1331C86.6207 92.3198 86.5141 92.4665 86.3941 92.5731C86.1407 92.4931 85.8674 92.4265 85.5741 92.3731C85.2807 92.3198 84.9541 92.2931 84.5941 92.2931C83.9674 92.2931 83.4941 92.4065 83.1741 92.6331C82.8541 92.8598 82.6941 93.2398 82.6941 93.7731ZM79.8741 95.9131L82.8341 95.9131L82.8341 103.453C82.7007 103.493 82.5141 103.526 82.2741 103.553C82.0341 103.593 81.7741 103.613 81.4941 103.613C80.9341 103.613 80.5207 103.513 80.2541 103.313C80.0007 103.113 79.8741 102.753 79.8741 102.233L79.8741 95.9131ZM90.3941 96.8531L90.3941 94.5731L94.2941 94.5731C94.3607 94.6798 94.4274 94.8331 94.4941 95.0331C94.5607 95.2331 94.5941 95.4531 94.5941 95.6931C94.5941 96.1065 94.5007 96.4065 94.3141 96.5931C94.1407 96.7665 93.8941 96.8531 93.5741 96.8531L90.3941 96.8531ZM90.8541 93.7731L90.8541 96.4931L88.0341 96.4931L88.0341 93.6731C88.0341 92.7931 88.2141 92.0798 88.5741 91.5331C88.9474 90.9865 89.4541 90.5865 90.0941 90.3331C90.7474 90.0665 91.4674 89.9331 92.2541 89.9331C93.1874 89.9331 93.8807 90.0598 94.3341 90.3131C94.8007 90.5531 95.0341 90.9465 95.0341 91.4931C95.0341 91.7331 94.9807 91.9465 94.8741 92.1331C94.7807 92.3198 94.6741 92.4665 94.5541 92.5731C94.3007 92.4931 94.0274 92.4265 93.7341 92.3731C93.4407 92.3198 93.1141 92.2931 92.7541 92.2931C92.1274 92.2931 91.6541 92.4065 91.3341 92.6331C91.0141 92.8598 90.8541 93.2398 90.8541 93.7731ZM88.0341 95.9131L90.9941 95.9131L90.9941 103.453C90.8607 103.493 90.6741 103.526 90.4341 103.553C90.1941 103.593 89.9341 103.613 89.6541 103.613C89.0941 103.613 88.6807 103.513 88.4141 103.313C88.1607 103.113 88.0341 102.753 88.0341 102.233L88.0341 95.9131Z" fill="#2D281A"/>
</svg>
